<svg xmlns="http://www.w3.org/2000/svg" xmlns:xlink="http://www.w3.org/1999/xlink" viewBox="0 0 256 256">
  <defs>
    <linearGradient id="linear-gradient" x1="79.18" y1="208.8" x2="171.96" y2="48.09" gradientUnits="userSpaceOnUse">
      <stop offset="0" stop-color="#00afff"/>
      <stop offset="1" stop-color="#00ff8f"/>
    </linearGradient>
  </defs>
  <g id="Layer_2" data-name="Layer 2">
    <g id="Layer_1-2" data-name="Layer 1">
      <rect width="256" height="256" rx="31.38" style="fill: #101010"/>
      <g>
        <path d="M100.89,38.37v5.91a2.33,2.33,0,0,1-2.32,2.33H92.71a2.33,2.33,0,0,0-2.33,2.33v5.79a2.33,2.33,0,0,1-2.33,2.33H82.2a2.33,2.33,0,0,0-2.33,2.33V65.3a2.33,2.33,0,0,1-2.33,2.33H71.69A2.33,2.33,0,0,0,69.36,70V213.84A14.16,14.16,0,0,0,83.5,228h0a14.14,14.14,0,0,0,11.14-5.4l31.57-40.1a42.88,42.88,0,0,1,33.7-16.36h27.86a11,11,0,0,0,11-11V47.1a11,11,0,0,0-11-11l-84.55,0A2.33,2.33,0,0,0,100.89,38.37Zm74.7,52H128A2.54,2.54,0,0,0,125.47,93V109.2a2.53,2.53,0,0,0,2.53,2.53h47.59a2.21,2.21,0,0,1,2.2,2.2v29a2.21,2.21,0,0,1-2.2,2.2h-28.7a42.89,42.89,0,0,0-34.29,17.12L95.39,185.12a2.78,2.78,0,0,1-5-1.67V69.66a2,2,0,0,1,2-2h6.46a2,2,0,0,0,2-2V59.08a2,2,0,0,1,2-2h72.67a2.2,2.2,0,0,1,2.2,2.2V88.21A2.2,2.2,0,0,1,175.59,90.41Z" style="fill: url(#linear-gradient)"/>
        <path d="M90.38,27.6v6.46a2,2,0,0,1-2,2H81.87a2,2,0,0,0-2,2v6.56a2,2,0,0,1-2,2H71.36a2,2,0,0,0-2,2v6.46a2,2,0,0,1-2,2H60.85a2,2,0,0,1-2-2V36.65a11,11,0,0,1,11-11h18.5A2,2,0,0,1,90.38,27.6Z" style="fill: #fff"/>
      </g>
    </g>
  </g>
</svg>
