<svg xmlns="http://www.w3.org/2000/svg" xmlns:xlink="http://www.w3.org/1999/xlink" viewBox="0 0 1008.94 340.94">
  <defs>
    <linearGradient id="linear-gradient" x1="80.67" y1="261.52" x2="183.7" y2="83.06" gradientUnits="userSpaceOnUse">
      <stop offset="0" stop-color="#00afff"/>
      <stop offset="1" stop-color="#00ff8f"/>
    </linearGradient>
  </defs>
  <g id="Layer_2" data-name="Layer 2">
    <g id="Dark">
      <rect width="1008.94" height="340.94" style="fill: none"/>
      <g>
        <path d="M104.78,72.27v6.56a2.58,2.58,0,0,1-2.58,2.59H95.7A2.59,2.59,0,0,0,93.11,84v6.44A2.57,2.57,0,0,1,90.53,93H84a2.59,2.59,0,0,0-2.59,2.59v6.57a2.59,2.59,0,0,1-2.58,2.58H72.35a2.59,2.59,0,0,0-2.58,2.59V267.13a15.72,15.72,0,0,0,15.7,15.72h0a15.74,15.74,0,0,0,12.37-6l35-44.53a47.65,47.65,0,0,1,37.43-18.17h30.93a12.26,12.26,0,0,0,12.26-12.26V82a12.25,12.25,0,0,0-12.25-12.26l-93.89,0A2.59,2.59,0,0,0,104.78,72.27Zm82.95,57.79H134.89a2.81,2.81,0,0,0-2.82,2.81v18a2.82,2.82,0,0,0,2.82,2.82h52.84a2.44,2.44,0,0,1,2.44,2.44v32.16a2.44,2.44,0,0,1-2.44,2.44H155.86a47.62,47.62,0,0,0-38.07,19L98.68,235.23a3.09,3.09,0,0,1-5.57-1.85V107a2.25,2.25,0,0,1,2.25-2.25h7.17a2.25,2.25,0,0,0,2.25-2.25V95.27A2.26,2.26,0,0,1,107,93h80.69a2.44,2.44,0,0,1,2.44,2.44v32.16A2.44,2.44,0,0,1,187.73,130.06Z" style="fill: url(#linear-gradient)"/>
        <path d="M93.11,60.31v7.17A2.21,2.21,0,0,1,90.9,69.7H83.66a2.21,2.21,0,0,0-2.22,2.22V79.2a2.22,2.22,0,0,1-2.22,2.22H72a2.21,2.21,0,0,0-2.22,2.21V90.8A2.21,2.21,0,0,1,67.55,93H60.31A2.21,2.21,0,0,1,58.1,90.8V70.36A12.26,12.26,0,0,1,70.36,58.1H90.9A2.21,2.21,0,0,1,93.11,60.31Z" style="fill: #fff"/>
      </g>
      <g>
        <path d="M277.48,99.1h94c3.82,0,5.88,2.06,5.88,5.29v10c0,3.23-2.06,5.29-5.88,5.29H296.28v25.55h62a4.93,4.93,0,0,1,5.28,5.29v10a4.93,4.93,0,0,1-5.28,5.29h-62v42.51c0,3.82-2.06,5.87-5.87,5.87H277.48c-3.81,0-5.87-2.05-5.87-5.87V105C271.61,101.16,273.67,99.1,277.48,99.1Z" style="fill: #fff"/>
        <path d="M458.21,210.48c-4.7,2.13-10.28,3.67-20.86,3.67H427.3c-29.67,0-42-6.17-42-25.26v-2.35c0-19.09,12.33-25.25,42-25.25h10.05c10.14,0,16.16,1.39,20.49,3.52-.88-17.92-5.43-20.26-19.38-20.26h-9.84c-12.93,0-18.65,1.32-19.83,5.8a5.51,5.51,0,0,1-5.14,3.74H392.71c-3.89,0-6.16-2.28-5.65-6.09,2.35-17,14.68-22,40.38-22h12.19c28.49,0,40.82,6.17,40.82,38.18v44.64c0,3.82-2.05,5.8-5.87,5.8H463.71C460.7,214.66,458.72,213.12,458.21,210.48Zm-.37-21.95v-1.62c0-5.87-6.46-8.74-21.73-8.74h-8.74c-13,0-19.46,2.87-19.46,8.74v1.62c0,5.87,6.46,8.73,19.46,8.73h8.74C451.38,197.26,457.84,194.4,457.84,188.53Z" style="fill: #fff"/>
        <path d="M500.82,192.35c-.59-4,2-6.1,5.65-6.1h10.06c3.67,0,5.58,1.1,6.1,3.82,1,5.29,6.31,6.68,25,6.68h11.6c22.62,0,26.87-2.13,26.87-8.51v-1.62c0-6.46-4.18-8.22-24.89-8.52L546.34,178c-33.26-.44-45.52-7.79-45.52-25.34V150.5c0-17.55,12.34-25,45.52-25H564.4c28.71,0,41.05,4.92,43.4,21.29.58,4-2,6.1-5.66,6.1H592.08c-3.67,0-5.58-1.1-6.09-3.82-1-5.29-6.31-6.68-25-6.68h-11.6c-21,0-26.88,2.13-26.88,8.52v1.61c0,6.46,4.19,8.23,24.82,8.52l14.83.15c33.34.44,45.6,7.48,45.6,25.11v2.35c0,17.54-12.34,25-45.6,25H544.14C515.5,213.64,503.17,208.72,500.82,192.35Z" style="fill: #fff"/>
        <path d="M621.56,170.76v-2.35c0-36.71,12.33-42.88,46.18-42.88h6.31c33.85,0,46.19,6.17,46.19,42.88V173c-.08,3.31-2,5.07-5.36,5.07H644.61c1.47,16.59,7.86,18.72,21,18.72h10.57c6.54,0,14.54-.88,17.4-7.19,1.4-2.06,2.79-3.09,5.22-3.09h14.46c3.67,0,5.73,2.21,4.7,5.88-4.85,17.84-18.94,21.29-43.91,21.29h-6.31C633.89,213.64,621.56,207.47,621.56,170.76Zm54.62-28.34H665.61c-13.14,0-19.53,2.13-21,18.72h52.57C695.71,144.55,689.33,142.42,676.18,142.42Z" style="fill: #fff"/>
        <path d="M733.34,170.76v-2.35c0-36.71,12.33-42.88,46.18-42.88h6.31c33.85,0,46.19,6.17,46.19,42.88V173c-.08,3.31-2,5.07-5.36,5.07H756.39c1.47,16.59,7.86,18.72,21,18.72H788c6.54,0,14.54-.88,17.4-7.19,1.4-2.06,2.79-3.09,5.22-3.09H825c3.67,0,5.73,2.21,4.7,5.88-4.85,17.84-18.94,21.29-43.91,21.29h-6.31C745.67,213.64,733.34,207.47,733.34,170.76ZM788,142.42H777.39c-13.14,0-19.53,2.13-21,18.72H809C807.49,144.55,801.11,142.42,788,142.42Z" style="fill: #fff"/>
        <path d="M857.6,99.1h10.86c3.82,0,5.88,2.06,5.88,5.87v31.28c6.9-6.39,16.44-9,26.8-9h6.38c31,0,43.32,6.17,43.32,41.12v39.72c0,3.82-2.05,5.88-5.87,5.88H934.1c-3.81,0-5.87-2.06-5.87-5.88v-39.5c0-19.82-6.9-22.83-21.73-22.83h-5.36c-19.9,0-26.8,7.93-26.8,22.83v39.65c0,3.82-2.06,5.87-5.88,5.87H857.6c-3.82,0-5.88-2.05-5.88-5.87V105C851.72,101.16,853.78,99.1,857.6,99.1Z" style="fill: #fff"/>
      </g>
    </g>
  </g>
</svg>
