<?xml version="1.0" encoding="UTF-8"?>
<svg id="Layer_2" data-name="Layer 2" xmlns="http://www.w3.org/2000/svg" xmlns:xlink="http://www.w3.org/1999/xlink" viewBox="0 0 1080 1080">
  <defs>
    <style>
      .cls-1 {
        fill: #fff;
      }

      .cls-2 {
        fill: none;
      }

      .cls-3 {
        fill: url(#linear-gradient);
      }
    </style>
    <linearGradient id="linear-gradient" x1="362.92" y1="832.92" x2="694.39" y2="258.79" gradientUnits="userSpaceOnUse">
      <stop offset="0" stop-color="#00afff"/>
      <stop offset="1" stop-color="#00ff8f"/>
    </linearGradient>
  </defs>
  <g id="Dark">
    <rect class="cls-2" width="1080" height="1080"/>
    <g>
      <path class="cls-3" d="M440.49,224.06v21.12c0,4.59-3.72,8.32-8.32,8.32h-20.91c-4.59,0-8.32,3.72-8.32,8.32v20.7c0,4.59-3.72,8.32-8.32,8.32h-20.91c-4.59,0-8.32,3.72-8.32,8.32v21.13c0,4.59-3.72,8.32-8.32,8.32h-20.91c-4.59,0-8.32,3.72-8.32,8.32v514.03c0,27.9,22.6,50.53,50.5,50.57h0c15.53.02,30.21-7.09,39.81-19.29l112.77-143.26c29.05-36.91,73.42-58.45,120.39-58.45h99.53c21.79,0,39.45-17.66,39.45-39.45V255.28c0-21.78-17.65-39.44-39.43-39.45l-302.04-.09c-4.6,0-8.32,3.72-8.32,8.32ZM707.34,410h-170c-5,0-9.05,4.05-9.05,9.05v58.07c0,5,4.05,9.05,9.05,9.05h170c4.34,0,7.85,3.51,7.85,7.85v103.46c0,4.34-3.51,7.85-7.85,7.85h-102.52c-48.18,0-93.56,22.66-122.5,61.19l-61.48,81.83c-5.74,7.64-17.9,3.58-17.9-5.97v-406.52c0-4,3.24-7.24,7.24-7.24h23.07c4,0,7.24-3.24,7.24-7.24v-23.28c0-4,3.24-7.24,7.24-7.24h259.6c4.34,0,7.85,3.51,7.85,7.85v103.46c0,4.34-3.51,7.85-7.85,7.85Z"/>
      <path class="cls-1" d="M402.95,185.61v23.05c0,3.94-3.2,7.14-7.14,7.14h-23.28c-3.94,0-7.14,3.2-7.14,7.14v23.42c0,3.94-3.2,7.14-7.14,7.14h-23.27c-3.94,0-7.14,3.2-7.14,7.14v23.07c0,3.94-3.2,7.14-7.14,7.14h-23.28c-3.94,0-7.14-3.2-7.14-7.14v-65.78c0-21.79,17.66-39.45,39.45-39.45h66.07c3.94,0,7.14,3.2,7.14,7.14Z"/>
    </g>
  </g>
</svg>